<?xml version='1.0' encoding='utf-8'?>
<svg xmlns="http://www.w3.org/2000/svg" version="1.0" width="1024.000000pt" height="1024.000000pt" viewBox="0 0 1024.000000 1024.000000" preserveAspectRatio="xMidYMid meet">

<g transform="translate(0.000000,1024.000000) scale(0.100000,-0.100000)" fill="#3B82F6" stroke="none">
<path d="M4800 8614 c-19 -2 -80 -9 -135 -15 -177 -18 -338 -64 -441 -124 -111 -65 -223 -189 -263 -291 -11 -28 -21 -34 -89 -54 -167 -50 -391 -152 -573 -261 -638 -383 -1152 -1010 -1374 -1674 -108 -321 -170 -706 -191 -1171 l-7 -159 -122 -117 c-252 -242 -360 -454 -372 -734 -17 -371 172 -669 538 -851 347 -172 1025 -285 2144 -358 420 -27 1273 -40 1795 -26 713 19 1092 43 1540 97 820 99 1226 230 1489 479 184 175 272 374 272 620 0 312 -148 591 -452 851 l-37 31 -11 189 c-23 371 -55 621 -112 871 -198 868 -804 1628 -1624 2036 -141 70 -357 154 -473 183 -60 15 -74 23 -79 42 -10 42 -99 166 -153 215 -110 99 -279 170 -480 202 -78 12 -189 18 -430 20 -179 2 -341 1 -360 -1z m-822 -1191 c26 -325 70 -917 107 -1433 42 -594 50 -673 79 -735 46 -100 137 -179 251 -216 30 -9 195 -14 650 -19 670 -8 662 -7 861 -76 287 -99 660 -320 870 -517 123 -116 149 -177 101 -248 -44 -65 -165 -96 -487 -123 -1015 -86 -2716 -43 -3681 94 -249 35 -280 36 -336 11 -91 -42 -109 -154 -35 -223 111 -104 745 -203 1587 -248 582 -31 1791 -41 2370 -20 1274 47 2043 168 2214 348 l34 36 -5 -89 c-6 -120 -36 -185 -132 -281 -59 -59 -90 -80 -176 -122 -301 -144 -851 -239 -1720 -297 -783 -51 -2064 -45 -2895 15 -841 61 -1397 157 -1665 288 -205 101 -317 299 -281 497 25 139 92 230 323 438 145 131 150 147 168 518 17 368 56 634 129 889 185 639 643 1225 1242 1586 80 48 382 203 399 204 3 0 16 -125 28 -277z m2802 2 c321 -192 671 -551 881 -906 130 -219 242 -480 255 -594 6 -51 5 -56 -24 -84 -37 -38 -80 -41 -116 -8 -13 12 -49 74 -78 137 -105 230 -256 482 -405 678 -153 201 -300 352 -566 581 -139 120 -164 166 -115 218 34 37 81 31 168 -22z" />
</g>
</svg>